<svg xmlns="http://www.w3.org/2000/svg" viewBox="0 0 768 410"><defs><style>.prt-1{stroke:none;fill:#cc0632}.prt-2,.prt-3{stroke:none;fill:#7a0021}.prt-3{fill:#960028}.prt-4{fill:#ffe082}.prt-4,.prt-5,.prt-6{stroke:#ff6f00}.prt-14,.prt-4,.prt-5,.prt-6{stroke-miterlimit:10}.prt-5{fill:#ffca28}.prt-6{fill:#ffb300}.prt-7{stroke:none;fill:#044bd9}.prt-8,.prt-9{stroke:none;fill:#010440}.prt-9{fill:#030a8c}.prt-10,.prt-11{stroke:none;fill:#04db38}.prt-11{fill:#0d381e}.prt-12,.prt-13{stroke:none;fill:#0b662a}.prt-13{fill:#ff381e}.prt-14{fill:none;stroke:#000;stroke-width:3px}</style></defs><title>Portable enclave diagram</title><desc>A single inner ochre cube at top center, and a translucent red, green, and blue cube distributed below. Each of the lower translucent cubes contains an ochre cube, and arrows suggest motion from the top center to the center of each of the cubes below. This diagram represents running the same enclave application in various backends.</desc><g><g><g transform="scale(0.7) translate(170, 0)"><polygon points="101.053 172.614 202.107 231.055 187.232 239.656 101.053 189.818 14.875 239.656 0 231.055 101.053 172.614" class="prt-1"/><polygon points="202.107 347.935 202.107 231.055 187.232 239.656 187.232 339.333 101.053 389.171 101.053 406.376 202.107 347.935" class="prt-2"/><polygon points="0 347.935 101.053 406.376 101.053 389.171 14.875 339.333 14.875 239.656 0 231.055 0 347.935" class="prt-3"/><g><polygon points="101.054 189.818 14.875 239.657 43.682 256.316 101.054 289.495 158.425 256.316 187.232 239.657 101.054 189.818" class="prt-4"/><polygon points="43.682 256.316 14.875 239.657 14.875 339.333 101.054 389.171 101.054 289.495 43.682 256.316" class="prt-5"/><polygon points="158.425 256.316 101.054 289.495 101.054 389.171 187.232 339.333 187.232 239.657 158.425 256.316" class="prt-6"/></g></g><g transform="scale(0.7) translate(170, 0)"><polygon points="384 268.614 485.053 327.055 470.179 335.656 384 285.818 297.821 335.656 282.947 327.055 384 268.614" class="prt-7"/><polygon points="485.053 443.935 485.053 327.055 470.179 335.656 470.179 435.333 384 485.171 384 502.376 485.053 443.935" class="prt-8"/><polygon points="282.947 443.935 384 502.376 384 485.171 297.821 435.333 297.821 335.656 282.947 327.055 282.947 443.935" class="prt-9"/><g><polygon points="384 285.818 297.821 335.657 326.629 352.316 384 385.495 441.371 352.316 470.179 335.657 384 285.818" class="prt-4"/><polygon points="326.629 352.316 297.821 335.657 297.821 435.333 384 485.171 384 385.495 326.629 352.316" class="prt-5"/><polygon points="441.371 352.316 384 385.495 384 485.171 470.179 435.333 470.179 335.657 441.371 352.316" class="prt-6"/></g></g><g transform="scale(0.7) translate(170, 0)"><polygon points="666.946 172.614 768 231.055 753.126 239.656 666.947 189.818 580.768 239.656 565.893 231.055 666.946 172.614" class="prt-10"/><polygon points="768 347.935 768 231.055 753.126 239.656 753.126 339.333 666.947 389.171 666.946 406.376 768 347.935" class="prt-11"/><polygon points="565.893 347.935 666.946 406.376 666.947 389.171 580.768 339.333 580.768 239.656 565.893 231.055 565.893 347.935" class="prt-12"/><g><polygon points="666.947 189.818 580.768 239.657 609.575 256.316 666.947 289.495 724.318 256.316 753.125 239.657 666.947 189.818" class="prt-4"/><polygon points="609.575 256.316 580.768 239.657 580.768 339.333 666.947 389.171 666.947 289.495 609.575 256.316" class="prt-5"/><polygon points="724.318 256.316 666.947 289.495 666.947 389.171 753.125 339.333 753.125 239.657 724.318 256.316" class="prt-6"/></g></g><g transform="scale(0.7) translate(170, 0)"><line x1="384" x2="384.001" y1="211.333" y2="257.376" class="prt-13"/><g><line x1="384" x2="384" y1="211.333" y2="235.847" class="prt-14"/><polygon points="369.041 231.47 384 257.376 398.959 231.47 369.041 231.47"/></g></g><g transform="scale(0.7) translate(170, 0)"><polygon points="384 .578 297.821 50.416 326.629 67.076 384 100.254 441.371 67.076 470.179 50.416 384 .578" class="prt-4"/><polygon points="326.629 67.076 297.821 50.416 297.821 150.093 384 199.931 384 100.254 326.629 67.076" class="prt-5"/><polygon points="441.371 67.076 384 100.254 384 199.931 470.179 150.093 470.179 50.416 441.371 67.076" class="prt-6"/></g><g transform="scale(0.7) translate(170, 0)"><line x1="509.371" x2="615.265" y1="134.298" y2="180.049" class="prt-13"/><g><line x1="509.371" x2="595.502" y1="134.298" y2="171.51" class="prt-14"/><polygon points="585.551 183.507 615.265 180.049 597.417 156.042 585.551 183.507"/></g></g><g transform="scale(0.7) translate(170, 0)"><line x1="258.629" x2="152.735" y1="134.298" y2="180.049" class="prt-13"/><g><line x1="258.629" x2="172.498" y1="134.298" y2="171.51" class="prt-14"/><polygon points="170.583 156.042 152.735 180.049 182.449 183.507 170.583 156.042"/></g></g></g></g></svg>